<mxfile host="app.diagrams.net" modified="2024-06-05T14:28:43.763Z" agent="Mozilla/5.0 (Windows NT 10.0; Win64; x64) AppleWebKit/537.36 (KHTML, like Gecko) Chrome/125.0.0.0 Safari/537.36" etag="Ryeb6quoEaIJ7PGDY_G3" version="24.4.13" type="github">
  <diagram id="R2lEEEUBdFMjLlhIrx00" name="Page-1">
    <mxGraphModel dx="838" dy="964" grid="1" gridSize="10" guides="1" tooltips="1" connect="1" arrows="1" fold="1" page="1" pageScale="1" pageWidth="850" pageHeight="1100" math="0" shadow="0" extFonts="Permanent Marker^https://fonts.googleapis.com/css?family=Permanent+Marker">
      <root>
        <mxCell id="0" />
        <mxCell id="1" parent="0" />
        <mxCell id="vBF5v3Q-Qyy129h_z25D-1" value="product" style="whiteSpace=wrap;html=1;align=center;" vertex="1" parent="1">
          <mxGeometry x="170" y="120" width="100" height="40" as="geometry" />
        </mxCell>
        <mxCell id="vBF5v3Q-Qyy129h_z25D-10" style="rounded=0;orthogonalLoop=1;jettySize=auto;html=1;exitX=1;exitY=1;exitDx=0;exitDy=0;entryX=0.5;entryY=0;entryDx=0;entryDy=0;strokeColor=default;align=center;verticalAlign=middle;fontFamily=Helvetica;fontSize=11;fontColor=default;labelBackgroundColor=default;endArrow=none;endFill=0;jumpStyle=none;" edge="1" parent="1" source="vBF5v3Q-Qyy129h_z25D-2" target="vBF5v3Q-Qyy129h_z25D-1">
          <mxGeometry relative="1" as="geometry" />
        </mxCell>
        <mxCell id="vBF5v3Q-Qyy129h_z25D-2" value="name" style="ellipse;whiteSpace=wrap;html=1;align=center;" vertex="1" parent="1">
          <mxGeometry x="40" y="40" width="100" height="40" as="geometry" />
        </mxCell>
        <mxCell id="vBF5v3Q-Qyy129h_z25D-11" style="edgeStyle=none;rounded=0;jumpStyle=none;orthogonalLoop=1;jettySize=auto;html=1;exitX=0.5;exitY=1;exitDx=0;exitDy=0;entryX=0.5;entryY=0;entryDx=0;entryDy=0;strokeColor=default;align=center;verticalAlign=middle;fontFamily=Helvetica;fontSize=11;fontColor=default;labelBackgroundColor=default;endArrow=none;endFill=0;" edge="1" parent="1" source="vBF5v3Q-Qyy129h_z25D-3" target="vBF5v3Q-Qyy129h_z25D-1">
          <mxGeometry relative="1" as="geometry" />
        </mxCell>
        <mxCell id="vBF5v3Q-Qyy129h_z25D-3" value="description" style="ellipse;whiteSpace=wrap;html=1;align=center;" vertex="1" parent="1">
          <mxGeometry x="150" y="40" width="100" height="40" as="geometry" />
        </mxCell>
        <mxCell id="vBF5v3Q-Qyy129h_z25D-12" style="edgeStyle=none;rounded=0;jumpStyle=none;orthogonalLoop=1;jettySize=auto;html=1;exitX=0.5;exitY=1;exitDx=0;exitDy=0;strokeColor=default;align=center;verticalAlign=middle;fontFamily=Helvetica;fontSize=11;fontColor=default;labelBackgroundColor=default;endArrow=none;endFill=0;" edge="1" parent="1" source="vBF5v3Q-Qyy129h_z25D-4">
          <mxGeometry relative="1" as="geometry">
            <mxPoint x="220" y="120" as="targetPoint" />
          </mxGeometry>
        </mxCell>
        <mxCell id="vBF5v3Q-Qyy129h_z25D-4" value="price" style="ellipse;whiteSpace=wrap;html=1;align=center;" vertex="1" parent="1">
          <mxGeometry x="260" y="40" width="100" height="40" as="geometry" />
        </mxCell>
        <mxCell id="vBF5v3Q-Qyy129h_z25D-13" style="edgeStyle=none;rounded=0;jumpStyle=none;orthogonalLoop=1;jettySize=auto;html=1;exitX=1;exitY=0.5;exitDx=0;exitDy=0;entryX=0;entryY=0.5;entryDx=0;entryDy=0;strokeColor=default;align=center;verticalAlign=middle;fontFamily=Helvetica;fontSize=11;fontColor=default;labelBackgroundColor=default;endArrow=none;endFill=0;" edge="1" parent="1" source="vBF5v3Q-Qyy129h_z25D-5" target="vBF5v3Q-Qyy129h_z25D-1">
          <mxGeometry relative="1" as="geometry" />
        </mxCell>
        <mxCell id="vBF5v3Q-Qyy129h_z25D-5" value="brand" style="ellipse;whiteSpace=wrap;html=1;align=center;" vertex="1" parent="1">
          <mxGeometry x="40" y="90" width="100" height="40" as="geometry" />
        </mxCell>
        <mxCell id="vBF5v3Q-Qyy129h_z25D-14" style="edgeStyle=none;rounded=0;jumpStyle=none;orthogonalLoop=1;jettySize=auto;html=1;exitX=1;exitY=0.5;exitDx=0;exitDy=0;strokeColor=default;align=center;verticalAlign=middle;fontFamily=Helvetica;fontSize=11;fontColor=default;labelBackgroundColor=default;endArrow=none;endFill=0;" edge="1" parent="1" source="vBF5v3Q-Qyy129h_z25D-6">
          <mxGeometry relative="1" as="geometry">
            <mxPoint x="170" y="140" as="targetPoint" />
          </mxGeometry>
        </mxCell>
        <mxCell id="vBF5v3Q-Qyy129h_z25D-6" value="category" style="ellipse;whiteSpace=wrap;html=1;align=center;" vertex="1" parent="1">
          <mxGeometry x="40" y="140" width="100" height="40" as="geometry" />
        </mxCell>
        <mxCell id="vBF5v3Q-Qyy129h_z25D-15" style="edgeStyle=none;rounded=0;jumpStyle=none;orthogonalLoop=1;jettySize=auto;html=1;exitX=1;exitY=0.5;exitDx=0;exitDy=0;strokeColor=default;align=center;verticalAlign=middle;fontFamily=Helvetica;fontSize=11;fontColor=default;labelBackgroundColor=default;endArrow=none;endFill=0;" edge="1" parent="1" source="vBF5v3Q-Qyy129h_z25D-9">
          <mxGeometry relative="1" as="geometry">
            <mxPoint x="170" y="140" as="targetPoint" />
          </mxGeometry>
        </mxCell>
        <mxCell id="vBF5v3Q-Qyy129h_z25D-9" value="product id" style="ellipse;whiteSpace=wrap;html=1;align=center;fontStyle=4;fontFamily=Helvetica;fontSize=11;fontColor=default;labelBackgroundColor=default;" vertex="1" parent="1">
          <mxGeometry x="40" y="190" width="100" height="40" as="geometry" />
        </mxCell>
        <mxCell id="vBF5v3Q-Qyy129h_z25D-16" value="product instance" style="whiteSpace=wrap;html=1;align=center;" vertex="1" parent="1">
          <mxGeometry x="170" y="310" width="100" height="40" as="geometry" />
        </mxCell>
        <mxCell id="vBF5v3Q-Qyy129h_z25D-23" style="edgeStyle=none;rounded=0;jumpStyle=none;orthogonalLoop=1;jettySize=auto;html=1;exitX=1;exitY=0.5;exitDx=0;exitDy=0;entryX=0;entryY=0.5;entryDx=0;entryDy=0;strokeColor=default;align=center;verticalAlign=middle;fontFamily=Helvetica;fontSize=11;fontColor=default;labelBackgroundColor=default;endArrow=none;endFill=0;" edge="1" parent="1" source="vBF5v3Q-Qyy129h_z25D-24" target="vBF5v3Q-Qyy129h_z25D-16">
          <mxGeometry relative="1" as="geometry" />
        </mxCell>
        <mxCell id="vBF5v3Q-Qyy129h_z25D-24" value="status" style="ellipse;whiteSpace=wrap;html=1;align=center;" vertex="1" parent="1">
          <mxGeometry x="40" y="280" width="100" height="40" as="geometry" />
        </mxCell>
        <mxCell id="vBF5v3Q-Qyy129h_z25D-25" style="edgeStyle=none;rounded=0;jumpStyle=none;orthogonalLoop=1;jettySize=auto;html=1;exitX=1;exitY=0.5;exitDx=0;exitDy=0;strokeColor=default;align=center;verticalAlign=middle;fontFamily=Helvetica;fontSize=11;fontColor=default;labelBackgroundColor=default;endArrow=none;endFill=0;" edge="1" parent="1" source="vBF5v3Q-Qyy129h_z25D-26">
          <mxGeometry relative="1" as="geometry">
            <mxPoint x="170" y="330" as="targetPoint" />
          </mxGeometry>
        </mxCell>
        <mxCell id="vBF5v3Q-Qyy129h_z25D-26" value="production date" style="ellipse;whiteSpace=wrap;html=1;align=center;" vertex="1" parent="1">
          <mxGeometry x="40" y="330" width="100" height="40" as="geometry" />
        </mxCell>
        <mxCell id="vBF5v3Q-Qyy129h_z25D-27" style="edgeStyle=none;rounded=0;jumpStyle=none;orthogonalLoop=1;jettySize=auto;html=1;exitX=1;exitY=0.5;exitDx=0;exitDy=0;strokeColor=default;align=center;verticalAlign=middle;fontFamily=Helvetica;fontSize=11;fontColor=default;labelBackgroundColor=default;endArrow=none;endFill=0;" edge="1" parent="1" source="vBF5v3Q-Qyy129h_z25D-28">
          <mxGeometry relative="1" as="geometry">
            <mxPoint x="170" y="330" as="targetPoint" />
          </mxGeometry>
        </mxCell>
        <mxCell id="vBF5v3Q-Qyy129h_z25D-28" value="instance id" style="ellipse;whiteSpace=wrap;html=1;align=center;fontStyle=4;fontFamily=Helvetica;fontSize=11;fontColor=default;labelBackgroundColor=default;" vertex="1" parent="1">
          <mxGeometry x="40" y="380" width="100" height="40" as="geometry" />
        </mxCell>
        <mxCell id="vBF5v3Q-Qyy129h_z25D-29" value="warehouse" style="whiteSpace=wrap;html=1;align=center;" vertex="1" parent="1">
          <mxGeometry x="170" y="490" width="100" height="40" as="geometry" />
        </mxCell>
        <mxCell id="vBF5v3Q-Qyy129h_z25D-30" style="edgeStyle=none;rounded=0;jumpStyle=none;orthogonalLoop=1;jettySize=auto;html=1;exitX=1;exitY=0.5;exitDx=0;exitDy=0;entryX=0;entryY=0.5;entryDx=0;entryDy=0;strokeColor=default;align=center;verticalAlign=middle;fontFamily=Helvetica;fontSize=11;fontColor=default;labelBackgroundColor=default;endArrow=none;endFill=0;" edge="1" parent="1" source="vBF5v3Q-Qyy129h_z25D-31" target="vBF5v3Q-Qyy129h_z25D-29">
          <mxGeometry relative="1" as="geometry" />
        </mxCell>
        <mxCell id="vBF5v3Q-Qyy129h_z25D-31" value="capacity" style="ellipse;whiteSpace=wrap;html=1;align=center;" vertex="1" parent="1">
          <mxGeometry x="40" y="460" width="100" height="40" as="geometry" />
        </mxCell>
        <mxCell id="vBF5v3Q-Qyy129h_z25D-32" style="edgeStyle=none;rounded=0;jumpStyle=none;orthogonalLoop=1;jettySize=auto;html=1;exitX=1;exitY=0.5;exitDx=0;exitDy=0;strokeColor=default;align=center;verticalAlign=middle;fontFamily=Helvetica;fontSize=11;fontColor=default;labelBackgroundColor=default;endArrow=none;endFill=0;" edge="1" parent="1" source="vBF5v3Q-Qyy129h_z25D-33">
          <mxGeometry relative="1" as="geometry">
            <mxPoint x="170" y="510" as="targetPoint" />
          </mxGeometry>
        </mxCell>
        <mxCell id="vBF5v3Q-Qyy129h_z25D-33" value="location" style="ellipse;whiteSpace=wrap;html=1;align=center;" vertex="1" parent="1">
          <mxGeometry x="40" y="510" width="100" height="40" as="geometry" />
        </mxCell>
        <mxCell id="vBF5v3Q-Qyy129h_z25D-34" style="edgeStyle=none;rounded=0;jumpStyle=none;orthogonalLoop=1;jettySize=auto;html=1;exitX=1;exitY=0.5;exitDx=0;exitDy=0;strokeColor=default;align=center;verticalAlign=middle;fontFamily=Helvetica;fontSize=11;fontColor=default;labelBackgroundColor=default;endArrow=none;endFill=0;" edge="1" parent="1" source="vBF5v3Q-Qyy129h_z25D-35">
          <mxGeometry relative="1" as="geometry">
            <mxPoint x="170" y="510" as="targetPoint" />
          </mxGeometry>
        </mxCell>
        <mxCell id="vBF5v3Q-Qyy129h_z25D-35" value="warehouse ID" style="ellipse;whiteSpace=wrap;html=1;align=center;fontStyle=4;fontFamily=Helvetica;fontSize=11;fontColor=default;labelBackgroundColor=default;" vertex="1" parent="1">
          <mxGeometry x="40" y="560" width="100" height="40" as="geometry" />
        </mxCell>
        <mxCell id="vBF5v3Q-Qyy129h_z25D-36" value="supplier" style="whiteSpace=wrap;html=1;align=center;" vertex="1" parent="1">
          <mxGeometry x="170" y="670" width="100" height="40" as="geometry" />
        </mxCell>
        <mxCell id="vBF5v3Q-Qyy129h_z25D-37" style="edgeStyle=none;rounded=0;jumpStyle=none;orthogonalLoop=1;jettySize=auto;html=1;exitX=1;exitY=0.5;exitDx=0;exitDy=0;entryX=0;entryY=0.5;entryDx=0;entryDy=0;strokeColor=default;align=center;verticalAlign=middle;fontFamily=Helvetica;fontSize=11;fontColor=default;labelBackgroundColor=default;endArrow=none;endFill=0;" edge="1" parent="1" source="vBF5v3Q-Qyy129h_z25D-38" target="vBF5v3Q-Qyy129h_z25D-36">
          <mxGeometry relative="1" as="geometry" />
        </mxCell>
        <mxCell id="vBF5v3Q-Qyy129h_z25D-38" value="contact number" style="ellipse;whiteSpace=wrap;html=1;align=center;" vertex="1" parent="1">
          <mxGeometry x="40" y="640" width="100" height="40" as="geometry" />
        </mxCell>
        <mxCell id="vBF5v3Q-Qyy129h_z25D-39" style="edgeStyle=none;rounded=0;jumpStyle=none;orthogonalLoop=1;jettySize=auto;html=1;exitX=1;exitY=0.5;exitDx=0;exitDy=0;strokeColor=default;align=center;verticalAlign=middle;fontFamily=Helvetica;fontSize=11;fontColor=default;labelBackgroundColor=default;endArrow=none;endFill=0;" edge="1" parent="1" source="vBF5v3Q-Qyy129h_z25D-40">
          <mxGeometry relative="1" as="geometry">
            <mxPoint x="170" y="690" as="targetPoint" />
          </mxGeometry>
        </mxCell>
        <mxCell id="vBF5v3Q-Qyy129h_z25D-40" value="supplier name" style="ellipse;whiteSpace=wrap;html=1;align=center;" vertex="1" parent="1">
          <mxGeometry x="40" y="690" width="100" height="40" as="geometry" />
        </mxCell>
        <mxCell id="vBF5v3Q-Qyy129h_z25D-41" style="edgeStyle=none;rounded=0;jumpStyle=none;orthogonalLoop=1;jettySize=auto;html=1;exitX=1;exitY=0.5;exitDx=0;exitDy=0;strokeColor=default;align=center;verticalAlign=middle;fontFamily=Helvetica;fontSize=11;fontColor=default;labelBackgroundColor=default;endArrow=none;endFill=0;" edge="1" parent="1" source="vBF5v3Q-Qyy129h_z25D-42">
          <mxGeometry relative="1" as="geometry">
            <mxPoint x="170" y="690" as="targetPoint" />
          </mxGeometry>
        </mxCell>
        <mxCell id="vBF5v3Q-Qyy129h_z25D-42" value="supplier ID" style="ellipse;whiteSpace=wrap;html=1;align=center;fontStyle=4;fontFamily=Helvetica;fontSize=11;fontColor=default;labelBackgroundColor=default;" vertex="1" parent="1">
          <mxGeometry x="40" y="740" width="100" height="40" as="geometry" />
        </mxCell>
        <mxCell id="vBF5v3Q-Qyy129h_z25D-45" style="edgeStyle=none;rounded=0;jumpStyle=none;orthogonalLoop=1;jettySize=auto;html=1;entryX=0.5;entryY=1;entryDx=0;entryDy=0;strokeColor=default;align=center;verticalAlign=middle;fontFamily=Helvetica;fontSize=11;fontColor=default;labelBackgroundColor=default;endArrow=none;endFill=0;" edge="1" parent="1" source="vBF5v3Q-Qyy129h_z25D-43" target="vBF5v3Q-Qyy129h_z25D-36">
          <mxGeometry relative="1" as="geometry" />
        </mxCell>
        <mxCell id="vBF5v3Q-Qyy129h_z25D-43" value="address" style="ellipse;whiteSpace=wrap;html=1;align=center;" vertex="1" parent="1">
          <mxGeometry x="170" y="760" width="100" height="40" as="geometry" />
        </mxCell>
        <mxCell id="vBF5v3Q-Qyy129h_z25D-46" value="customer" style="whiteSpace=wrap;html=1;align=center;" vertex="1" parent="1">
          <mxGeometry x="650" y="120" width="100" height="40" as="geometry" />
        </mxCell>
        <mxCell id="vBF5v3Q-Qyy129h_z25D-47" style="rounded=0;orthogonalLoop=1;jettySize=auto;html=1;exitX=1;exitY=1;exitDx=0;exitDy=0;entryX=0.5;entryY=0;entryDx=0;entryDy=0;strokeColor=default;align=center;verticalAlign=middle;fontFamily=Helvetica;fontSize=11;fontColor=default;labelBackgroundColor=default;endArrow=none;endFill=0;jumpStyle=none;" edge="1" source="vBF5v3Q-Qyy129h_z25D-48" target="vBF5v3Q-Qyy129h_z25D-46" parent="1">
          <mxGeometry relative="1" as="geometry" />
        </mxCell>
        <mxCell id="vBF5v3Q-Qyy129h_z25D-48" value="membership level" style="ellipse;whiteSpace=wrap;html=1;align=center;" vertex="1" parent="1">
          <mxGeometry x="520" y="40" width="100" height="40" as="geometry" />
        </mxCell>
        <mxCell id="vBF5v3Q-Qyy129h_z25D-53" style="edgeStyle=none;rounded=0;jumpStyle=none;orthogonalLoop=1;jettySize=auto;html=1;exitX=1;exitY=0.5;exitDx=0;exitDy=0;entryX=0;entryY=0.5;entryDx=0;entryDy=0;strokeColor=default;align=center;verticalAlign=middle;fontFamily=Helvetica;fontSize=11;fontColor=default;labelBackgroundColor=default;endArrow=none;endFill=0;" edge="1" source="vBF5v3Q-Qyy129h_z25D-54" target="vBF5v3Q-Qyy129h_z25D-46" parent="1">
          <mxGeometry relative="1" as="geometry" />
        </mxCell>
        <mxCell id="vBF5v3Q-Qyy129h_z25D-54" value="contact number" style="ellipse;whiteSpace=wrap;html=1;align=center;" vertex="1" parent="1">
          <mxGeometry x="520" y="90" width="100" height="40" as="geometry" />
        </mxCell>
        <mxCell id="vBF5v3Q-Qyy129h_z25D-55" style="edgeStyle=none;rounded=0;jumpStyle=none;orthogonalLoop=1;jettySize=auto;html=1;exitX=1;exitY=0.5;exitDx=0;exitDy=0;strokeColor=default;align=center;verticalAlign=middle;fontFamily=Helvetica;fontSize=11;fontColor=default;labelBackgroundColor=default;endArrow=none;endFill=0;" edge="1" source="vBF5v3Q-Qyy129h_z25D-56" parent="1">
          <mxGeometry relative="1" as="geometry">
            <mxPoint x="650" y="140" as="targetPoint" />
          </mxGeometry>
        </mxCell>
        <mxCell id="vBF5v3Q-Qyy129h_z25D-56" value="name" style="ellipse;whiteSpace=wrap;html=1;align=center;" vertex="1" parent="1">
          <mxGeometry x="520" y="140" width="100" height="40" as="geometry" />
        </mxCell>
        <mxCell id="vBF5v3Q-Qyy129h_z25D-57" style="edgeStyle=none;rounded=0;jumpStyle=none;orthogonalLoop=1;jettySize=auto;html=1;exitX=1;exitY=0.5;exitDx=0;exitDy=0;strokeColor=default;align=center;verticalAlign=middle;fontFamily=Helvetica;fontSize=11;fontColor=default;labelBackgroundColor=default;endArrow=none;endFill=0;" edge="1" source="vBF5v3Q-Qyy129h_z25D-58" parent="1">
          <mxGeometry relative="1" as="geometry">
            <mxPoint x="650" y="140" as="targetPoint" />
          </mxGeometry>
        </mxCell>
        <mxCell id="vBF5v3Q-Qyy129h_z25D-58" value="customer ID" style="ellipse;whiteSpace=wrap;html=1;align=center;fontStyle=4;fontFamily=Helvetica;fontSize=11;fontColor=default;labelBackgroundColor=default;" vertex="1" parent="1">
          <mxGeometry x="520" y="190" width="100" height="40" as="geometry" />
        </mxCell>
        <mxCell id="vBF5v3Q-Qyy129h_z25D-59" value="order" style="whiteSpace=wrap;html=1;align=center;" vertex="1" parent="1">
          <mxGeometry x="530" y="360" width="100" height="40" as="geometry" />
        </mxCell>
        <mxCell id="vBF5v3Q-Qyy129h_z25D-60" style="rounded=0;orthogonalLoop=1;jettySize=auto;html=1;exitX=1;exitY=1;exitDx=0;exitDy=0;entryX=0.5;entryY=0;entryDx=0;entryDy=0;strokeColor=default;align=center;verticalAlign=middle;fontFamily=Helvetica;fontSize=11;fontColor=default;labelBackgroundColor=default;endArrow=none;endFill=0;jumpStyle=none;" edge="1" parent="1" source="vBF5v3Q-Qyy129h_z25D-61" target="vBF5v3Q-Qyy129h_z25D-59">
          <mxGeometry relative="1" as="geometry" />
        </mxCell>
        <mxCell id="vBF5v3Q-Qyy129h_z25D-61" value="shipping address" style="ellipse;whiteSpace=wrap;html=1;align=center;" vertex="1" parent="1">
          <mxGeometry x="400" y="280" width="100" height="40" as="geometry" />
        </mxCell>
        <mxCell id="vBF5v3Q-Qyy129h_z25D-62" style="edgeStyle=none;rounded=0;jumpStyle=none;orthogonalLoop=1;jettySize=auto;html=1;exitX=1;exitY=0.5;exitDx=0;exitDy=0;entryX=0;entryY=0.5;entryDx=0;entryDy=0;strokeColor=default;align=center;verticalAlign=middle;fontFamily=Helvetica;fontSize=11;fontColor=default;labelBackgroundColor=default;endArrow=none;endFill=0;" edge="1" parent="1" source="vBF5v3Q-Qyy129h_z25D-63" target="vBF5v3Q-Qyy129h_z25D-59">
          <mxGeometry relative="1" as="geometry" />
        </mxCell>
        <mxCell id="vBF5v3Q-Qyy129h_z25D-63" value="payment method" style="ellipse;whiteSpace=wrap;html=1;align=center;" vertex="1" parent="1">
          <mxGeometry x="400" y="330" width="100" height="40" as="geometry" />
        </mxCell>
        <mxCell id="vBF5v3Q-Qyy129h_z25D-64" style="edgeStyle=none;rounded=0;jumpStyle=none;orthogonalLoop=1;jettySize=auto;html=1;exitX=1;exitY=0.5;exitDx=0;exitDy=0;strokeColor=default;align=center;verticalAlign=middle;fontFamily=Helvetica;fontSize=11;fontColor=default;labelBackgroundColor=default;endArrow=none;endFill=0;" edge="1" parent="1" source="vBF5v3Q-Qyy129h_z25D-65">
          <mxGeometry relative="1" as="geometry">
            <mxPoint x="530" y="380" as="targetPoint" />
          </mxGeometry>
        </mxCell>
        <mxCell id="vBF5v3Q-Qyy129h_z25D-65" value="date and time" style="ellipse;whiteSpace=wrap;html=1;align=center;" vertex="1" parent="1">
          <mxGeometry x="400" y="380" width="100" height="40" as="geometry" />
        </mxCell>
        <mxCell id="vBF5v3Q-Qyy129h_z25D-66" style="edgeStyle=none;rounded=0;jumpStyle=none;orthogonalLoop=1;jettySize=auto;html=1;exitX=1;exitY=0.5;exitDx=0;exitDy=0;strokeColor=default;align=center;verticalAlign=middle;fontFamily=Helvetica;fontSize=11;fontColor=default;labelBackgroundColor=default;endArrow=none;endFill=0;" edge="1" parent="1" source="vBF5v3Q-Qyy129h_z25D-67">
          <mxGeometry relative="1" as="geometry">
            <mxPoint x="530" y="380" as="targetPoint" />
          </mxGeometry>
        </mxCell>
        <mxCell id="vBF5v3Q-Qyy129h_z25D-67" value="order ID" style="ellipse;whiteSpace=wrap;html=1;align=center;fontStyle=4;fontFamily=Helvetica;fontSize=11;fontColor=default;labelBackgroundColor=default;" vertex="1" parent="1">
          <mxGeometry x="400" y="430" width="100" height="40" as="geometry" />
        </mxCell>
        <mxCell id="vBF5v3Q-Qyy129h_z25D-70" style="edgeStyle=none;rounded=0;jumpStyle=none;orthogonalLoop=1;jettySize=auto;html=1;entryX=0;entryY=0.5;entryDx=0;entryDy=0;strokeColor=default;align=center;verticalAlign=middle;fontFamily=Helvetica;fontSize=11;fontColor=default;labelBackgroundColor=default;endArrow=none;endFill=0;" edge="1" parent="1" source="vBF5v3Q-Qyy129h_z25D-68" target="vBF5v3Q-Qyy129h_z25D-56">
          <mxGeometry relative="1" as="geometry" />
        </mxCell>
        <mxCell id="vBF5v3Q-Qyy129h_z25D-68" value="last name" style="ellipse;whiteSpace=wrap;html=1;align=center;" vertex="1" parent="1">
          <mxGeometry x="400" y="120" width="100" height="40" as="geometry" />
        </mxCell>
        <mxCell id="vBF5v3Q-Qyy129h_z25D-71" style="edgeStyle=none;rounded=0;jumpStyle=none;orthogonalLoop=1;jettySize=auto;html=1;entryX=0;entryY=0.5;entryDx=0;entryDy=0;strokeColor=default;align=center;verticalAlign=middle;fontFamily=Helvetica;fontSize=11;fontColor=default;labelBackgroundColor=default;endArrow=none;endFill=0;" edge="1" parent="1" source="vBF5v3Q-Qyy129h_z25D-69" target="vBF5v3Q-Qyy129h_z25D-56">
          <mxGeometry relative="1" as="geometry" />
        </mxCell>
        <mxCell id="vBF5v3Q-Qyy129h_z25D-69" value="first name" style="ellipse;whiteSpace=wrap;html=1;align=center;" vertex="1" parent="1">
          <mxGeometry x="400" y="170" width="100" height="40" as="geometry" />
        </mxCell>
        <mxCell id="vBF5v3Q-Qyy129h_z25D-73" style="edgeStyle=none;rounded=0;jumpStyle=none;orthogonalLoop=1;jettySize=auto;html=1;strokeColor=default;align=center;verticalAlign=middle;fontFamily=Helvetica;fontSize=11;fontColor=default;labelBackgroundColor=default;endArrow=none;endFill=0;" edge="1" parent="1" source="vBF5v3Q-Qyy129h_z25D-72" target="vBF5v3Q-Qyy129h_z25D-59">
          <mxGeometry relative="1" as="geometry" />
        </mxCell>
        <mxCell id="vBF5v3Q-Qyy129h_z25D-72" value="total price" style="ellipse;whiteSpace=wrap;html=1;align=center;" vertex="1" parent="1">
          <mxGeometry x="520" y="280" width="100" height="40" as="geometry" />
        </mxCell>
        <mxCell id="vBF5v3Q-Qyy129h_z25D-74" value="employee" style="whiteSpace=wrap;html=1;align=center;" vertex="1" parent="1">
          <mxGeometry x="645" y="600" width="100" height="40" as="geometry" />
        </mxCell>
        <mxCell id="vBF5v3Q-Qyy129h_z25D-75" style="rounded=0;orthogonalLoop=1;jettySize=auto;html=1;exitX=1;exitY=1;exitDx=0;exitDy=0;entryX=0.5;entryY=0;entryDx=0;entryDy=0;strokeColor=default;align=center;verticalAlign=middle;fontFamily=Helvetica;fontSize=11;fontColor=default;labelBackgroundColor=default;endArrow=none;endFill=0;jumpStyle=none;" edge="1" parent="1" source="vBF5v3Q-Qyy129h_z25D-76" target="vBF5v3Q-Qyy129h_z25D-74">
          <mxGeometry relative="1" as="geometry" />
        </mxCell>
        <mxCell id="vBF5v3Q-Qyy129h_z25D-76" value="contact number" style="ellipse;whiteSpace=wrap;html=1;align=center;" vertex="1" parent="1">
          <mxGeometry x="515" y="520" width="100" height="40" as="geometry" />
        </mxCell>
        <mxCell id="vBF5v3Q-Qyy129h_z25D-77" style="edgeStyle=none;rounded=0;jumpStyle=none;orthogonalLoop=1;jettySize=auto;html=1;exitX=1;exitY=0.5;exitDx=0;exitDy=0;entryX=0;entryY=0.5;entryDx=0;entryDy=0;strokeColor=default;align=center;verticalAlign=middle;fontFamily=Helvetica;fontSize=11;fontColor=default;labelBackgroundColor=default;endArrow=none;endFill=0;" edge="1" parent="1" source="vBF5v3Q-Qyy129h_z25D-78" target="vBF5v3Q-Qyy129h_z25D-74">
          <mxGeometry relative="1" as="geometry" />
        </mxCell>
        <mxCell id="vBF5v3Q-Qyy129h_z25D-78" value="department" style="ellipse;whiteSpace=wrap;html=1;align=center;" vertex="1" parent="1">
          <mxGeometry x="515" y="570" width="100" height="40" as="geometry" />
        </mxCell>
        <mxCell id="vBF5v3Q-Qyy129h_z25D-79" style="edgeStyle=none;rounded=0;jumpStyle=none;orthogonalLoop=1;jettySize=auto;html=1;exitX=1;exitY=0.5;exitDx=0;exitDy=0;strokeColor=default;align=center;verticalAlign=middle;fontFamily=Helvetica;fontSize=11;fontColor=default;labelBackgroundColor=default;endArrow=none;endFill=0;" edge="1" parent="1" source="vBF5v3Q-Qyy129h_z25D-80">
          <mxGeometry relative="1" as="geometry">
            <mxPoint x="645" y="620" as="targetPoint" />
          </mxGeometry>
        </mxCell>
        <mxCell id="vBF5v3Q-Qyy129h_z25D-80" value="name" style="ellipse;whiteSpace=wrap;html=1;align=center;" vertex="1" parent="1">
          <mxGeometry x="515" y="620" width="100" height="40" as="geometry" />
        </mxCell>
        <mxCell id="vBF5v3Q-Qyy129h_z25D-81" style="edgeStyle=none;rounded=0;jumpStyle=none;orthogonalLoop=1;jettySize=auto;html=1;exitX=1;exitY=0.5;exitDx=0;exitDy=0;strokeColor=default;align=center;verticalAlign=middle;fontFamily=Helvetica;fontSize=11;fontColor=default;labelBackgroundColor=default;endArrow=none;endFill=0;" edge="1" parent="1" source="vBF5v3Q-Qyy129h_z25D-82">
          <mxGeometry relative="1" as="geometry">
            <mxPoint x="645" y="620" as="targetPoint" />
          </mxGeometry>
        </mxCell>
        <mxCell id="vBF5v3Q-Qyy129h_z25D-82" value="employee ID" style="ellipse;whiteSpace=wrap;html=1;align=center;fontStyle=4;fontFamily=Helvetica;fontSize=11;fontColor=default;labelBackgroundColor=default;" vertex="1" parent="1">
          <mxGeometry x="515" y="670" width="100" height="40" as="geometry" />
        </mxCell>
        <mxCell id="vBF5v3Q-Qyy129h_z25D-83" style="edgeStyle=none;rounded=0;jumpStyle=none;orthogonalLoop=1;jettySize=auto;html=1;strokeColor=default;align=center;verticalAlign=middle;fontFamily=Helvetica;fontSize=11;fontColor=default;labelBackgroundColor=default;endArrow=none;endFill=0;" edge="1" parent="1" source="vBF5v3Q-Qyy129h_z25D-84" target="vBF5v3Q-Qyy129h_z25D-74">
          <mxGeometry relative="1" as="geometry" />
        </mxCell>
        <mxCell id="vBF5v3Q-Qyy129h_z25D-84" value="date of hire" style="ellipse;whiteSpace=wrap;html=1;align=center;" vertex="1" parent="1">
          <mxGeometry x="635" y="520" width="100" height="40" as="geometry" />
        </mxCell>
        <mxCell id="vBF5v3Q-Qyy129h_z25D-87" style="edgeStyle=none;rounded=0;jumpStyle=none;orthogonalLoop=1;jettySize=auto;html=1;entryX=0;entryY=0.5;entryDx=0;entryDy=0;strokeColor=default;align=center;verticalAlign=middle;fontFamily=Helvetica;fontSize=11;fontColor=default;labelBackgroundColor=default;endArrow=none;endFill=0;" edge="1" parent="1" source="vBF5v3Q-Qyy129h_z25D-85" target="vBF5v3Q-Qyy129h_z25D-80">
          <mxGeometry relative="1" as="geometry" />
        </mxCell>
        <mxCell id="vBF5v3Q-Qyy129h_z25D-85" value="last name" style="ellipse;whiteSpace=wrap;html=1;align=center;" vertex="1" parent="1">
          <mxGeometry x="395" y="595" width="100" height="40" as="geometry" />
        </mxCell>
        <mxCell id="vBF5v3Q-Qyy129h_z25D-88" style="edgeStyle=none;rounded=0;jumpStyle=none;orthogonalLoop=1;jettySize=auto;html=1;entryX=0;entryY=0.5;entryDx=0;entryDy=0;strokeColor=default;align=center;verticalAlign=middle;fontFamily=Helvetica;fontSize=11;fontColor=default;labelBackgroundColor=default;endArrow=none;endFill=0;" edge="1" parent="1" source="vBF5v3Q-Qyy129h_z25D-86" target="vBF5v3Q-Qyy129h_z25D-80">
          <mxGeometry relative="1" as="geometry" />
        </mxCell>
        <mxCell id="vBF5v3Q-Qyy129h_z25D-86" value="first name" style="ellipse;whiteSpace=wrap;html=1;align=center;" vertex="1" parent="1">
          <mxGeometry x="395" y="645" width="100" height="40" as="geometry" />
        </mxCell>
      </root>
    </mxGraphModel>
  </diagram>
</mxfile>
